<svg width="25" height="24" viewBox="0 0 25 24" fill="none" xmlns="http://www.w3.org/2000/svg">
<path d="M6.92717 18C6.52835 18 6.19079 17.86 5.91447 17.58C5.63816 17.3 5.5 16.9579 5.5 16.5538V7.4462C5.5 7.04206 5.63816 6.7 5.91447 6.42C6.19079 6.14 6.52835 6 6.92717 6H19.0729C19.4716 6 19.8092 6.14 20.0855 6.42C20.3618 6.7 20.5 7.04206 20.5 7.4462V16.5538C20.5 16.9579 20.3618 17.3 20.0855 17.58C19.8092 17.86 19.4716 18 19.0729 18H6.92717ZM13 12.4462L6.68421 8.3538V16.5538C6.68421 16.6257 6.70697 16.6846 6.7525 16.7308C6.79803 16.777 6.85625 16.8 6.92717 16.8H19.0729C19.1438 16.8 19.2019 16.777 19.2475 16.7308C19.2931 16.6846 19.3158 16.6257 19.3158 16.5538V8.3538L13 12.4462ZM13 11.2L19.1944 7.2H6.80559L13 11.2ZM6.68421 8.3538V7.2V16.5538C6.68421 16.6257 6.70697 16.6846 6.7525 16.7308C6.79803 16.777 6.85625 16.8 6.92717 16.8H6.68421V8.3538Z" fill="#0075FF"/>
</svg>
