<svg width="99" height="26" viewBox="0 0 99 26" fill="none" xmlns="http://www.w3.org/2000/svg">
<path d="M21.5945 5.91005L11.56 11.4781V14.7727L20.4438 9.84792V18.1634L11.5371 22.7787L2.94337 18.1731L2.86514 8.25844L11.516 3.21478L16.754 6.25857L19.3144 4.64629L11.5371 0L0 6.52565L0.104306 19.8864L11.4198 25.9495L11.5143 26L23.1851 19.9531L23.2959 19.8961V6.80088L21.5945 5.91005Z" fill="white"/>
<path d="M11.5232 8.88544V5.56155L5.22083 9.40658L5.12305 9.46684V17.0869L11.5313 20.4824L16.4825 17.9907V14.8167L11.5362 17.323L7.97514 15.3899V11.0775L11.5232 8.88544Z" fill="white"/>
<path d="M21.5945 5.91005L11.56 11.4781V14.7727L20.4438 9.84792V18.1634L11.5371 22.7787L2.94337 18.1731L2.86514 8.25844L11.516 3.21478L16.754 6.25857L19.3144 4.64629L11.5371 0L0 6.52565L0.104306 19.8864L11.4198 25.9495L11.5143 26L23.1851 19.9531L23.2959 19.8961V6.80088L21.5945 5.91005Z" fill="white"/>
<path d="M11.5232 8.88544V5.56155L5.22083 9.40658L5.12305 9.46684V17.0869L11.5313 20.4824L16.4825 17.9907V14.8167L11.5362 17.323L7.97514 15.3899V11.0775L11.5232 8.88544Z" fill="white"/>
<path d="M32.8013 23.9986L39.3729 1.9637H44.107L50.6635 23.9986H46.7236L45.2529 19.1368H38.1967L36.7563 23.9986H32.8013ZM39.2845 15.3469H44.1651L41.7252 7.16429L39.2845 15.3469Z" fill="white"/>
<path d="M52.9551 1.9637H56.7478V23.9986H52.9551V1.9637Z" fill="white"/>
<path d="M60.0117 19.9304H64.0838V23.9985H60.0117V19.9304Z" fill="white"/>
<path d="M67.1787 5.12222L70.0563 1.9637H78.7383L81.6143 5.12222V9.11723H78.1622V7.03229L76.9987 5.73922H71.8086L70.6435 7.03229V18.9316L71.7942 20.2087H76.9986L78.162 18.9316V15.9051H75.4596V12.1152H81.6142V20.8401L78.7383 23.9986H70.0563L67.1787 20.8401V5.12222Z" fill="white"/>
<path d="M84.5625 5.12222L87.4385 1.9637H96.1221L98.9981 5.12222V20.8401L96.1221 23.9986H87.4385L84.5625 20.8401V5.12222ZM88.0146 18.9316L89.1781 20.2087H94.3825L95.5459 18.9316V7.03229L94.3825 5.75361H89.1781L88.0146 7.03229V18.9316Z" fill="white"/>
</svg>
